<svg xmlns="http://www.w3.org/2000/svg">
    <symbol
        id="BookList"
        width="25"
        height="29"
        viewBox="0 0 25 29"
        fill="none"
        xmlns="http://www.w3.org/2000/svg">
        <path
            fill-rule="evenodd"
            clip-rule="evenodd"
            d="M25 24.8571C25 27.1452 23.1345 29 20.8333 29L4.16667 29C1.86548 29 1.74519e-06 27.1452 1.54517e-06 24.8571L5.45631e-06 4.14285C5.25629e-06 1.85482 1.86548 -1.79221e-06 4.16667 -1.99339e-06L17.5296 -1.25427e-06L25 7.4277L25 24.8571ZM20.8333 24.8571L20.8333 10.3571L14.5833 10.3571L14.5833 4.14286L4.16667 4.14285L4.16667 24.8571L20.8333 24.8571Z"
            fill="#5C426C"
        />
        <path
            fill-rule="evenodd"
            clip-rule="evenodd"
            d="M8 8L3 8L3 6L8 6L8 8Z"
            fill="#5C426C"
        />
        <path
            fill-rule="evenodd"
            clip-rule="evenodd"
            d="M9 11L3 11L3 9L9 9V11Z"
            fill="#5C426C"
        />
    </symbol>
    <symbol
        id="AddBook"
        width="24"
        height="28"
        viewBox="0 0 24 28"
        fill="none"
        xmlns="http://www.w3.org/2000/svg">
        <path
            fill-rule="evenodd"
            clip-rule="evenodd"
            d="M4 24L10 24L10 28L4 28C1.79086 28 1.75079e-06 26.2091 1.55766e-06 24L5.53125e-06 4C5.33812e-06 1.79086 1.79086 3.42355e-08 4 -1.58894e-07L16.8284 6.26959e-07L24 7.17157L24 14L20 14L20 10L14 10L14 4L4 4L4 24Z"
            fill="#5C426C"
        />
        <path
            fill-rule="evenodd"
            clip-rule="evenodd"
            d="M24 24L12 24L12 20L24 20V24Z"
            fill="#5C426C"
        />
        <path
            fill-rule="evenodd"
            clip-rule="evenodd"
            d="M16 28L16 16L20 16L20 28L16 28Z"
            fill="#5C426C"
        />
    </symbol>
    <symbol
        id="Favorite"
        width="24" 
        height="24" 
        viewBox="0 0 24 24" 
        fill="none" 
        xmlns="http://www.w3.org/2000/svg">
        <path 
            fill-rule="evenodd" 
            clip-rule="evenodd" 
            d="M0 4.97857C0 2.22898 2.22898 0 4.97857 0H5.36154C8.17819 0 10.4615 2.28335 10.4615 5.1V6.55714H17V9.95714H10.4615V17H7.06154V9.95714H4.97857C2.22898 9.95714 0 7.72816 0 4.97857ZM7.06154 6.55714V5.1C7.06154 4.16112 6.30042 3.4 5.36154 3.4H4.97857C4.10675 3.4 3.4 4.10675 3.4 4.97857C3.4 5.85039 4.10675 6.55714 4.97857 6.55714H7.06154Z" 
            fill="#5C426C"/>
        <path 
            fill-rule="evenodd" 
            clip-rule="evenodd" 
            d="M24 4.97857C24 2.22898 21.8147 0 19.119 0H19C16.2386 0 14 2.28335 14 5.1V17H17.3333V9.95714H19.119C21.8147 9.95714 24 7.72816 24 4.97857ZM17.3333 6.55714V5.1C17.3333 4.16112 18.0795 3.4 19 3.4H19.119C19.9738 3.4 20.6667 4.10675 20.6667 4.97857C20.6667 5.85039 19.9738 6.55714 19.119 6.55714H17.3333Z" 
            fill="#5C426C"/>
        <path 
            fill-rule="evenodd" 
            clip-rule="evenodd" 
            d="M24 19C24 21.7614 21.7167 24 18.9 24L18.6385 24C15.8218 24 13.5385 21.7614 13.5385 19L13.5385 17.3333L7 17.3333L7 14L18.9 14C21.7167 14 24 16.2386 24 19ZM16.9385 17.3333L16.9385 19C16.9385 19.9205 17.6996 20.6667 18.6385 20.6667L18.9 20.6667C19.8389 20.6667 20.6 19.9205 20.6 19C20.6 18.0795 19.8389 17.3333 18.9 17.3333L16.9385 17.3333Z" 
            fill="#5C426C"/>
        <path 
            fill-rule="evenodd" 
            clip-rule="evenodd" 
            d="M4.37114e-07 19C1.95703e-07 21.7614 2.23858 24 5 24C7.76142 24 10 21.7614 10 19L10 14L5 14C2.23858 14 6.78525e-07 16.2386 4.37114e-07 19ZM5 20.6667C4.07953 20.6667 3.33333 19.9205 3.33333 19C3.33333 18.0795 4.07953 17.3333 5 17.3333L6.66667 17.3333L6.66667 19C6.66667 19.9205 5.92047 20.6667 5 20.6667Z" 
            fill="#5C426C"/>
    </symbol>
    <symbol
        id="Warning"
        width="16" 
        height="16" 
        viewBox="0 0 16 16" 
        fill="none" 
        xmlns="http://www.w3.org/2000/svg">
        <path 
            fill-rule="evenodd" 
            clip-rule="evenodd" 
            d="M0 8C0 3.58172 3.58172 0 8 0C10.1217 0 12.1566 0.842855 13.6569 2.34315C15.1571 3.84344 16 5.87827 16 8C16 12.4183 12.4183 16 8 16C3.58172 16 0 12.4183 0 8ZM7.13333 8.51333C7.13333 8.99198 7.52135 9.38 8 9.38C8.47865 9.38 8.86667 8.99198 8.86667 8.51333V4.51333C8.86667 4.03469 8.47865 3.64667 8 3.64667C7.52135 3.64667 7.13333 4.03469 7.13333 4.51333V8.51333ZM8 14.6667C4.3181 14.6667 1.33333 11.6819 1.33333 8C1.33333 4.3181 4.3181 1.33333 8 1.33333C11.6819 1.33333 14.6667 4.3181 14.6667 8C14.6667 9.76811 13.9643 11.4638 12.714 12.714C11.4638 13.9643 9.76811 14.6667 8 14.6667ZM8.96667 11.3467C8.96667 11.899 8.51895 12.3467 7.96667 12.3467C7.41438 12.3467 6.96667 11.899 6.96667 11.3467C6.96667 10.7944 7.41438 10.3467 7.96667 10.3467C8.51895 10.3467 8.96667 10.7944 8.96667 11.3467Z" 
            fill="white"
        />
    </symbol>
    <symbol 
        id="Close"
        width="24" 
        height="24" 
        viewBox="0 0 24 24" 
        fill="none" 
        xmlns="http://www.w3.org/2000/svg">
        <path 
            d="M12.94 12L18.4667 6.47333C18.6932 6.20883 18.678 5.81454 18.4317 5.56829C18.1855 5.32204 17.7912 5.30681 17.5267 5.53333L12 11.06L6.47336 5.52667C6.21194 5.26525 5.78811 5.26525 5.52669 5.52667C5.26528 5.78808 5.26528 6.21192 5.52669 6.47333L11.06 12L5.52669 17.5267C5.33644 17.6896 5.25357 17.9454 5.31215 18.1889C5.37073 18.4325 5.56088 18.6226 5.80441 18.6812C6.04794 18.7398 6.30376 18.6569 6.46669 18.4667L12 12.94L17.5267 18.4667C17.7912 18.6932 18.1855 18.678 18.4317 18.4317C18.678 18.1855 18.6932 17.7912 18.4667 17.5267L12.94 12Z" 
            fill="#737373"
        />
    </symbol>
    <symbol 
        id="Clear"
        width="16" 
        height="16" 
        viewBox="0 0 16 16" 
        fill="none" 
        xmlns="http://www.w3.org/2000/svg">
        <path 
            fill-rule="evenodd" 
            clip-rule="evenodd" 
            d="M8.00003 15.1111C4.07267 15.1111 0.888916 11.9274 0.888916 8C0.888916 4.07264 4.07267 0.888885 8.00003 0.888885C11.9274 0.888885 15.1111 4.07264 15.1111 8C15.1111 9.88598 14.3619 11.6947 13.0283 13.0283C11.6947 14.3619 9.88601 15.1111 8.00003 15.1111ZM8.00003 1.77777C4.56359 1.77777 1.7778 4.56356 1.7778 8C1.7778 11.4364 4.56359 14.2222 8.00003 14.2222C11.4365 14.2222 14.2222 11.4364 14.2222 8C14.2222 4.56356 11.4365 1.77777 8.00003 1.77777ZM10.8756 5.84L8.71558 8L10.8134 10.0844C10.9644 10.2608 10.9542 10.5236 10.7901 10.6878C10.6259 10.852 10.363 10.8621 10.1867 10.7111L8.08003 8.60444L5.96003 10.7244C5.85141 10.8513 5.68086 10.9065 5.51851 10.8675C5.35615 10.8284 5.22939 10.7016 5.19033 10.5393C5.15128 10.3769 5.20653 10.2064 5.33336 10.0978L7.4578 8L5.28892 5.80444C5.1379 5.6281 5.14806 5.36524 5.31222 5.20108C5.47639 5.03692 5.73924 5.02676 5.91558 5.17777L8.08892 7.35111L10.2489 5.21333C10.4253 5.06232 10.6881 5.07247 10.8523 5.23664C11.0164 5.4008 11.0266 5.66366 10.8756 5.84Z" 
            fill="black"
        />
        <mask 
            id="mask0_3_67" 
            style="mask-type:alpha" 
            maskUnits="userSpaceOnUse" 
            x="0" 
            y="0" 
            width="16" 
            height="16"
        >
            <path 
                fill-rule="evenodd" 
                clip-rule="evenodd" 
                d="M8.00003 15.1111C4.07267 15.1111 0.888916 11.9274 0.888916 8C0.888916 4.07264 4.07267 0.888885 8.00003 0.888885C11.9274 0.888885 15.1111 4.07264 15.1111 8C15.1111 9.88598 14.3619 11.6947 13.0283 13.0283C11.6947 14.3619 9.88601 15.1111 8.00003 15.1111ZM8.00003 1.77777C4.56359 1.77777 1.7778 4.56356 1.7778 8C1.7778 11.4364 4.56359 14.2222 8.00003 14.2222C11.4365 14.2222 14.2222 11.4364 14.2222 8C14.2222 4.56356 11.4365 1.77777 8.00003 1.77777ZM10.8756 5.84L8.71558 8L10.8134 10.0844C10.9644 10.2608 10.9542 10.5236 10.7901 10.6878C10.6259 10.852 10.363 10.8621 10.1867 10.7111L8.08003 8.60444L5.96003 10.7244C5.85141 10.8513 5.68086 10.9065 5.51851 10.8675C5.35615 10.8284 5.22939 10.7016 5.19033 10.5393C5.15128 10.3769 5.20653 10.2064 5.33336 10.0978L7.4578 8L5.28892 5.80444C5.1379 5.6281 5.14806 5.36524 5.31222 5.20108C5.47639 5.03692 5.73924 5.02676 5.91558 5.17777L8.08892 7.35111L10.2489 5.21333C10.4253 5.06232 10.6881 5.07247 10.8523 5.23664C11.0164 5.4008 11.0266 5.66366 10.8756 5.84Z" 
                fill="white"
            />
        </mask>
        <g mask="url(#mask0_3_67)">
            <rect width="16" height="16" fill="#737373"/>
        </g>
    </symbol>
    <symbol 
        id="Search"
        width="22" 
        height="22" 
        viewBox="0 0 22 22" 
        fill="none" 
        xmlns="http://www.w3.org/2000/svg">
        <path 
            fill-rule="evenodd" 
            clip-rule="evenodd" 
            d="M9.22 0.333344C4.43353 0.333344 0.553329 4.21354 0.553329 9.00001C0.553329 13.7865 4.43353 17.6667 9.22 17.6667C14.0065 17.6667 17.8867 13.7865 17.8867 9.00001C17.8867 4.21354 14.0065 0.333344 9.22 0.333344ZM9.22 1.70001C12.1732 1.69731 14.8371 3.47419 15.9691 6.2018C17.1011 8.92941 16.4782 12.0704 14.3909 14.1595C12.3036 16.2487 9.16326 16.8745 6.43462 15.745C3.70597 14.6155 1.92666 11.9532 1.92666 9.00001C1.94488 4.9785 5.1985 1.7219 9.22 1.70001ZM16.7533 15.58L21.6667 20.5267C21.8346 20.6958 21.8995 20.9416 21.837 21.1716C21.7745 21.4016 21.5941 21.5807 21.3637 21.6416C21.1333 21.7025 20.8879 21.6358 20.72 21.4667L15.8067 16.52L16.7533 15.58Z" 
            fill="black"
        />
        <mask 
            id="mask0_21_352" 
            style="mask-type:alpha" 
            maskUnits="userSpaceOnUse" 
            x="0" 
            y="0" 
            width="22" 
            height="22"
        >
            <path 
                fill-rule="evenodd" 
                clip-rule="evenodd" 
                d="M9.22 0.333344C4.43353 0.333344 0.553329 4.21354 0.553329 9.00001C0.553329 13.7865 4.43353 17.6667 9.22 17.6667C14.0065 17.6667 17.8867 13.7865 17.8867 9.00001C17.8867 4.21354 14.0065 0.333344 9.22 0.333344ZM9.22 1.70001C12.1732 1.69731 14.8371 3.47419 15.9691 6.2018C17.1011 8.92941 16.4782 12.0704 14.3909 14.1595C12.3036 16.2487 9.16326 16.8745 6.43462 15.745C3.70597 14.6155 1.92666 11.9532 1.92666 9.00001C1.94488 4.9785 5.1985 1.7219 9.22 1.70001ZM16.7533 15.58L21.6667 20.5267C21.8346 20.6958 21.8995 20.9416 21.837 21.1716C21.7745 21.4016 21.5941 21.5807 21.3637 21.6416C21.1333 21.7025 20.8879 21.6358 20.72 21.4667L15.8067 16.52L16.7533 15.58Z" 
                fill="white"
            />
        </mask>
        <g mask="url(#mask0_21_352)">
            <rect x="-1" y="-1" width="24" height="24" fill="#0079B8"/>
        </g>
    </symbol>
</svg>